<?xml version="1.0" encoding="UTF-8" standalone="no"?>
<!-- Created with Inkscape (http://www.inkscape.org/) -->

<svg
   version="1.1"
   id="svg1"
   width="793.70135"
   height="1122.52"
   viewBox="0 0 793.70135 1122.52"
   sodipodi:docname="logo SU.svg"
   inkscape:version="1.4.3 (0d15f75, 2025-12-25)"
   xmlns:inkscape="http://www.inkscape.org/namespaces/inkscape"
   xmlns:sodipodi="http://sodipodi.sourceforge.net/DTD/sodipodi-0.dtd"
   xmlns="http://www.w3.org/2000/svg"
   xmlns:svg="http://www.w3.org/2000/svg">
  <defs
     id="defs1" />
  <sodipodi:namedview
     id="namedview1"
     pagecolor="#ffffff"
     bordercolor="#000000"
     borderopacity="0.25"
     inkscape:showpageshadow="2"
     inkscape:pageopacity="0.0"
     inkscape:pagecheckerboard="0"
     inkscape:deskcolor="#d1d1d1"
     inkscape:zoom="1.0069958"
     inkscape:cx="403.67595"
     inkscape:cy="279.54436"
     inkscape:window-width="1403"
     inkscape:window-height="856"
     inkscape:window-x="0"
     inkscape:window-y="39"
     inkscape:window-maximized="0"
     inkscape:current-layer="layer-MC0">
    <inkscape:page
       x="0"
       y="0"
       inkscape:label="1"
       id="page1"
       width="793.70135"
       height="1122.52"
       margin="0"
       bleed="0" />
  </sodipodi:namedview>
  <g
     id="layer-MC0"
     inkscape:groupmode="layer"
     inkscape:label="Layer 1">
    <path
       id="path1"
       d="m 0,0 c 0,-39.138 -31.729,-70.866 -70.866,-70.866 -39.139,0 -70.866,31.728 -70.866,70.866 0,39.138 31.727,70.866 70.866,70.866 C -31.729,70.866 0,39.138 0,0 Z"
       style="fill:none;stroke:#ee1d26;stroke-width:4;stroke-linecap:butt;stroke-linejoin:miter;stroke-miterlimit:10;stroke-dasharray:none;stroke-opacity:1"
       transform="matrix(1.3333333,0,0,-1.3333333,493.89587,204.01987)" />
    <path
       id="path2"
       d="m 0,0 c 0,-36.04 -29.216,-65.255 -65.255,-65.255 -36.039,0 -65.255,29.215 -65.255,65.255 0,36.039 29.216,65.254 65.255,65.254 C -29.216,65.254 0,36.039 0,0 Z"
       style="fill:none;stroke:#3e75d0;stroke-width:2;stroke-linecap:butt;stroke-linejoin:miter;stroke-miterlimit:10;stroke-dasharray:none;stroke-opacity:1"
       transform="matrix(1.3333333,0,0,-1.3333333,486.414,204.2152)" />
    <path
       id="path3"
       d="m 0,0 c 0.02,-0.042 0.037,-0.089 0.054,-0.139 0.016,-0.05 0.036,-0.102 0.06,-0.155 0.073,-0.16 0.24,-0.26 0.502,-0.301 0.261,-0.042 0.554,-0.044 0.877,-0.007 0.322,0.037 0.636,0.093 0.942,0.167 0.306,0.075 0.538,0.148 0.698,0.22 0.149,0.068 0.327,0.161 0.535,0.281 0.208,0.12 0.403,0.262 0.585,0.428 C 4.434,0.659 4.571,0.836 4.665,1.026 4.758,1.215 4.76,1.411 4.668,1.613 4.562,1.847 4.355,1.958 4.046,1.947 3.738,1.935 3.374,1.87 2.954,1.75 2.535,1.63 2.083,1.497 1.599,1.348 1.116,1.2 0.647,1.103 0.194,1.058 -0.26,1.013 -0.673,1.056 -1.046,1.188 -1.42,1.32 -1.71,1.615 -1.917,2.072 c -0.308,0.68 -0.271,1.349 0.109,2.009 0.38,0.658 1.081,1.219 2.101,1.681 0.5,0.226 0.946,0.379 1.338,0.461 0.392,0.081 0.732,0.13 1.02,0.145 0.287,0.014 0.527,0.017 0.717,0.007 0.19,-0.01 0.322,0.002 0.397,0.036 0.085,0.038 0.143,0.08 0.173,0.126 0.031,0.046 0.071,0.099 0.12,0.16 L 4.312,6.601 4.194,4.741 3.863,4.707 C 3.824,4.766 3.784,4.825 3.745,4.884 3.706,4.943 3.629,4.985 3.515,5.01 3.22,5.095 2.821,5.1 2.317,5.025 1.813,4.951 1.284,4.789 0.732,4.539 0.519,4.442 0.323,4.337 0.144,4.224 -0.035,4.111 -0.185,3.989 -0.305,3.858 -0.425,3.727 -0.504,3.591 -0.544,3.452 -0.583,3.312 -0.569,3.168 -0.502,3.02 -0.396,2.786 -0.19,2.677 0.116,2.694 0.422,2.711 0.785,2.779 1.205,2.899 1.625,3.018 2.076,3.152 2.56,3.301 3.043,3.449 3.513,3.543 3.969,3.583 4.425,3.623 4.843,3.568 5.224,3.421 5.604,3.273 5.9,2.965 6.112,2.498 6.324,2.03 6.383,1.595 6.289,1.194 6.195,0.793 6.017,0.431 5.753,0.107 5.49,-0.217 5.166,-0.499 4.781,-0.737 4.396,-0.975 4.022,-1.176 3.661,-1.34 3.3,-1.503 2.925,-1.631 2.538,-1.723 2.15,-1.815 1.79,-1.882 1.457,-1.924 1.124,-1.966 0.838,-1.993 0.6,-2.004 0.362,-2.016 0.222,-2.032 0.179,-2.051 0.105,-2.085 0.056,-2.146 0.031,-2.233 l -0.295,0.058 -0.075,2.118 z"
       style="fill:#000000;fill-opacity:1;fill-rule:nonzero;stroke:none"
       transform="matrix(1.3333333,0,0,-1.3333333,362.7916,141.23853)" />
    <path
       id="path4"
       d="M 0,0 C 0.332,0.066 0.597,0.182 0.796,0.347 0.995,0.512 1.058,0.777 0.984,1.143 0.913,1.498 0.752,1.724 0.5,1.823 0.248,1.921 -0.043,1.937 -0.375,1.87 l -2.883,-0.578 0.375,-1.87 z m -5.046,1.665 c -0.035,0.172 -0.195,0.229 -0.481,0.171 l -0.062,0.31 4.993,1.001 C 0.331,3.333 1.059,3.306 1.589,3.067 2.119,2.828 2.466,2.297 2.631,1.474 2.797,0.65 2.679,0.034 2.279,-0.373 1.879,-0.781 1.215,-1.077 0.289,-1.263 l -2.917,-0.585 0.516,-2.574 c 0.034,-0.172 0.172,-0.233 0.412,-0.185 l 0.062,-0.309 -2.437,-0.489 -0.062,0.309 c 0.286,0.057 0.412,0.172 0.378,0.344 z"
       style="fill:#000000;fill-opacity:1;fill-rule:nonzero;stroke:none"
       transform="matrix(1.3333333,0,0,-1.3333333,383.4916,131.79333)" />
    <path
       id="path5"
       d="m 0,0 c -0.373,0.013 -0.739,-0.035 -1.099,-0.145 -0.36,-0.11 -0.684,-0.273 -0.972,-0.491 -0.288,-0.218 -0.522,-0.487 -0.703,-0.807 -0.181,-0.321 -0.278,-0.691 -0.293,-1.111 -0.015,-0.42 0.057,-0.796 0.214,-1.128 0.158,-0.333 0.373,-0.617 0.645,-0.855 0.271,-0.237 0.583,-0.423 0.934,-0.558 0.352,-0.135 0.713,-0.209 1.087,-0.222 0.373,-0.013 0.739,0.035 1.099,0.145 0.36,0.11 0.684,0.274 0.972,0.491 0.288,0.218 0.522,0.487 0.703,0.807 0.18,0.321 0.278,0.691 0.293,1.111 0.015,0.42 -0.057,0.796 -0.214,1.128 C 2.508,-1.303 2.293,-1.018 2.021,-0.78 1.75,-0.543 1.437,-0.357 1.087,-0.222 0.735,-0.087 0.373,-0.013 0,0 M 0.046,1.294 C 0.687,1.272 1.287,1.169 1.848,0.986 2.407,0.802 2.891,0.54 3.299,0.199 3.708,-0.142 4.025,-0.565 4.253,-1.069 4.48,-1.573 4.582,-2.158 4.559,-2.822 4.535,-3.487 4.393,-4.063 4.13,-4.55 3.868,-5.037 3.521,-5.436 3.09,-5.748 2.658,-6.06 2.157,-6.278 1.587,-6.404 1.016,-6.53 0.41,-6.582 -0.231,-6.559 c -0.641,0.023 -1.242,0.117 -1.802,0.283 -0.561,0.165 -1.045,0.419 -1.453,0.76 -0.409,0.341 -0.726,0.764 -0.954,1.268 -0.227,0.504 -0.329,1.089 -0.306,1.753 0.024,0.665 0.166,1.241 0.429,1.728 0.262,0.487 0.609,0.886 1.04,1.198 0.431,0.311 0.933,0.539 1.504,0.682 0.571,0.143 1.177,0.204 1.819,0.181"
       style="fill:#000000;fill-opacity:1;fill-rule:nonzero;stroke:none"
       transform="matrix(1.3333333,0,0,-1.3333333,399.61453,128.02507)" />
    <path
       id="path6"
       d="M 0,0 C 1.1,-0.314 1.748,-0.123 1.947,0.572 2.027,0.853 1.959,1.112 1.741,1.35 1.524,1.588 1.13,1.789 0.558,1.952 L -2.102,2.712 -2.659,0.76 Z M 0.947,3.188 C 1.945,2.903 2.678,2.514 3.145,2.023 3.61,1.532 3.73,0.888 3.503,0.092 3.416,-0.211 3.283,-0.464 3.104,-0.668 2.924,-0.872 2.717,-1.034 2.482,-1.155 2.247,-1.276 2.003,-1.357 1.748,-1.4 1.493,-1.443 1.239,-1.458 0.988,-1.447 L 1.95,-4.324 c 0.054,-0.15 0.126,-0.27 0.215,-0.362 0.089,-0.092 0.19,-0.173 0.304,-0.242 l -0.086,-0.303 -2.575,0.736 0.087,0.303 c 0.145,-0.042 0.233,-0.012 0.261,0.088 0.032,0.113 -0.002,0.311 -0.103,0.594 l -0.762,2.366 -2.339,0.668 -0.687,-2.406 c -0.027,-0.09 -0.008,-0.165 0.053,-0.225 0.062,-0.06 0.126,-0.1 0.194,-0.119 l -0.086,-0.303 -2.238,0.639 0.085,0.303 c 0.203,-0.058 0.328,-0.002 0.375,0.166 l 1.799,6.294 c 0.048,0.168 -0.029,0.281 -0.231,0.339 l 0.087,0.303 z"
       style="fill:#000000;fill-opacity:1;fill-rule:nonzero;stroke:none"
       transform="matrix(1.3333333,0,0,-1.3333333,418.81253,134.0452)" />
    <path
       id="path7"
       d="m 0,0 c 0.052,-0.028 0.112,-0.039 0.184,-0.031 0.07,0.007 0.128,0.052 0.173,0.134 L 3.178,5.202 1.187,6.304 C 1.105,6.349 1.018,6.371 0.923,6.369 0.829,6.368 0.757,6.321 0.706,6.229 L 0.431,6.382 1.404,8.143 1.68,7.991 C 1.601,7.848 1.583,7.731 1.626,7.641 1.669,7.55 1.731,7.482 1.813,7.437 L 7.266,4.421 C 7.348,4.376 7.438,4.359 7.538,4.371 7.638,4.382 7.727,4.459 7.806,4.603 L 8.082,4.45 7.107,2.689 6.832,2.841 C 6.883,2.933 6.884,3.02 6.835,3.1 6.786,3.18 6.721,3.243 6.639,3.288 L 4.648,4.389 1.827,-0.71 C 1.743,-0.864 1.792,-0.991 1.977,-1.093 l -0.154,-0.276 -1.975,1.093 z"
       style="fill:#000000;fill-opacity:1;fill-rule:nonzero;stroke:none"
       transform="matrix(1.3333333,0,0,-1.3333333,429.72133,144.32587)" />
    <path
       id="path8"
       d="m 0,0 c -0.221,0.13 -0.376,0.12 -0.465,-0.031 l -2.042,-3.462 c -0.285,-0.484 -0.338,-0.975 -0.159,-1.475 0.18,-0.499 0.631,-0.963 1.355,-1.389 0.724,-0.427 1.347,-0.598 1.872,-0.514 0.523,0.085 0.928,0.37 1.213,0.853 l 2.042,3.462 c 0.089,0.151 0.008,0.301 -0.243,0.449 l 0.16,0.272 2.096,-1.236 -0.161,-0.271 c -0.22,0.13 -0.376,0.12 -0.464,-0.031 L 2.955,-7.187 C 2.771,-7.498 2.524,-7.756 2.214,-7.959 1.905,-8.163 1.542,-8.291 1.125,-8.343 c -0.417,-0.052 -0.886,-0.009 -1.408,0.13 -0.521,0.137 -1.083,0.384 -1.686,0.74 -0.603,0.356 -1.091,0.728 -1.464,1.118 -0.373,0.389 -0.638,0.778 -0.794,1.168 -0.156,0.391 -0.22,0.77 -0.191,1.14 0.027,0.369 0.134,0.71 0.317,1.021 l 2.25,3.814 c 0.047,0.08 0.051,0.156 0.012,0.227 -0.04,0.07 -0.145,0.156 -0.316,0.257 l 0.16,0.271 2.156,-1.271 z"
       style="fill:#000000;fill-opacity:1;fill-rule:nonzero;stroke:none"
       transform="matrix(1.3333333,0,0,-1.3333333,365.87893,262.26067)" />
    <path
       id="path9"
       d="M 0,0 C 0.205,-0.044 0.326,0.019 0.363,0.19 L 1.75,6.587 C 1.787,6.758 1.703,6.866 1.497,6.91 L 1.564,7.218 4.078,6.673 4.012,6.365 C 3.929,6.371 3.883,6.351 3.874,6.306 3.861,6.249 3.953,6.067 4.149,5.762 L 7.313,0.528 8.317,5.164 C 8.354,5.334 8.259,5.445 8.031,5.494 L 8.098,5.802 10.185,5.35 10.118,5.042 C 9.913,5.086 9.792,5.023 9.754,4.852 L 8.368,-1.545 C 8.331,-1.716 8.416,-1.824 8.621,-1.868 L 8.554,-2.176 6.33,-1.694 6.397,-1.386 c 0.08,-0.017 0.126,0.002 0.138,0.059 0.01,0.046 -0.027,0.138 -0.11,0.275 -0.084,0.137 -0.178,0.295 -0.283,0.473 L 2.879,4.856 1.8,-0.122 c -0.037,-0.17 0.064,-0.282 0.304,-0.334 l -0.067,-0.308 -2.104,0.456 z"
       style="fill:#000000;fill-opacity:1;fill-rule:nonzero;stroke:none"
       transform="matrix(1.3333333,0,0,-1.3333333,378.2864,278.5856)" />
    <path
       id="path10"
       d="M 0,0 C 0.187,0.006 0.314,0.031 0.383,0.074 0.451,0.117 0.484,0.185 0.481,0.278 L 0.268,6.82 C 0.265,6.914 0.228,6.979 0.156,7.018 0.085,7.057 -0.045,7.073 -0.23,7.067 L -0.241,7.382 2.418,7.468 2.428,7.153 C 2.102,7.143 1.941,7.05 1.946,6.875 L 2.16,0.333 C 2.166,0.158 2.332,0.076 2.658,0.087 L 2.669,-0.228 0.01,-0.315 Z"
       style="fill:#000000;fill-opacity:1;fill-rule:nonzero;stroke:none"
       transform="matrix(1.3333333,0,0,-1.3333333,399.8164,281.4372)" />
    <path
       id="path11"
       d="M 0,0 C 0.057,0.014 0.108,0.047 0.155,0.1 0.203,0.153 0.216,0.226 0.194,0.316 L -1.163,5.984 -3.376,5.455 C -3.467,5.433 -3.546,5.389 -3.614,5.325 -3.684,5.261 -3.705,5.178 -3.681,5.075 L -3.987,5.002 -4.456,6.959 -4.149,7.033 C -4.111,6.874 -4.046,6.775 -3.953,6.738 -3.859,6.7 -3.768,6.692 -3.677,6.714 l 6.059,1.451 c 0.091,0.021 0.169,0.07 0.235,0.146 0.066,0.075 0.08,0.192 0.042,0.352 L 2.965,8.736 3.434,6.779 3.127,6.705 C 3.103,6.808 3.046,6.872 2.955,6.898 2.865,6.924 2.774,6.927 2.684,6.905 L 0.471,6.375 1.828,0.708 C 1.869,0.538 1.991,0.477 2.195,0.525 L 2.269,0.219 0.073,-0.306 Z"
       style="fill:#000000;fill-opacity:1;fill-rule:nonzero;stroke:none"
       transform="matrix(1.3333333,0,0,-1.3333333,415.33853,279.708)" />
    <path
       id="path12"
       d="m 0,0 c -0.107,0.194 -0.319,0.204 -0.636,0.029 l -3.739,-2.061 0.845,-1.533 2.36,1.301 c 0.174,0.096 0.294,0.179 0.361,0.25 0.069,0.07 0.072,0.162 0.009,0.274 l 0.277,0.153 0.895,-1.625 -0.307,-0.169 c -0.031,0.129 -0.11,0.175 -0.236,0.139 -0.127,-0.036 -0.292,-0.111 -0.497,-0.223 l -2.237,-1.234 0.997,-1.809 3.924,2.163 c 0.122,0.068 0.209,0.152 0.259,0.254 0.051,0.101 0.051,0.197 0,0.29 l 0.277,0.152 0.886,-1.61 -0.275,-0.152 C 3.112,-5.319 3.043,-5.29 2.956,-5.325 2.868,-5.36 2.764,-5.411 2.641,-5.479 l -5.625,-3.101 -0.153,0.276 c 0.052,0.029 0.093,0.074 0.124,0.138 0.032,0.064 0.025,0.137 -0.02,0.219 l -3.16,5.732 c -0.045,0.082 -0.103,0.126 -0.174,0.134 -0.07,0.007 -0.132,-0.002 -0.183,-0.031 l -0.152,0.276 5.441,3 c 0.317,0.174 0.424,0.354 0.324,0.537 l 0.275,0.153 0.937,-1.702 z"
       style="fill:#000000;fill-opacity:1;fill-rule:nonzero;stroke:none"
       transform="matrix(1.3333333,0,0,-1.3333333,434.17053,263.86613)" />
    <path
       id="path13"
       d="m 0,0 h -14.276 v 4.381 c 0,2.045 -0.183,3.347 -0.548,3.908 -0.365,0.559 -0.974,0.839 -1.826,0.839 -0.925,0 -1.624,-0.378 -2.099,-1.133 -0.475,-0.755 -0.712,-1.9 -0.712,-3.434 0,-1.973 0.266,-3.459 0.8,-4.457 0.51,-1 1.958,-2.205 4.344,-3.615 6.843,-4.061 11.152,-7.394 12.929,-9.999 1.777,-2.605 2.666,-6.803 2.666,-12.596 0,-4.212 -0.493,-7.315 -1.479,-9.311 -0.986,-1.997 -2.891,-3.67 -5.714,-5.021 -2.824,-1.351 -6.11,-2.026 -9.858,-2.026 -4.114,0 -7.626,0.779 -10.534,2.337 -2.909,1.557 -4.814,3.542 -5.714,5.951 -0.901,2.41 -1.352,5.83 -1.352,10.26 v 3.871 h 14.277 v -7.193 c 0,-2.216 0.201,-3.639 0.602,-4.272 0.402,-0.634 1.114,-0.949 2.137,-0.949 1.022,0 1.782,0.401 2.281,1.204 0.499,0.803 0.749,1.996 0.749,3.579 0,3.48 -0.475,5.756 -1.424,6.827 -0.974,1.071 -3.372,2.86 -7.193,5.368 -3.822,2.531 -6.353,4.369 -7.595,5.513 -1.241,1.144 -2.27,2.726 -3.085,4.747 -0.816,2.02 -1.223,4.6 -1.223,7.741 0,4.527 0.578,7.837 1.734,9.931 1.156,2.093 3.025,3.73 5.605,4.911 2.58,1.18 5.696,1.771 9.347,1.771 3.992,0 7.394,-0.646 10.205,-1.936 2.812,-1.29 4.674,-2.915 5.587,-4.874 C -0.457,10.363 0,7.034 0,2.337 Z"
       style="fill:#ee1d26;fill-opacity:1;fill-rule:nonzero;stroke:none"
       transform="matrix(1.3333333,0,0,-1.3333333,393.51893,187.58173)" />
    <path
       id="path14"
       d="m 0,0 v -39.506 c 0,-4.479 -0.146,-7.626 -0.438,-9.439 -0.292,-1.814 -1.157,-3.676 -2.593,-5.586 -1.437,-1.912 -3.329,-3.36 -5.678,-4.345 -2.349,-0.986 -5.118,-1.479 -8.307,-1.479 -3.529,0 -6.644,0.584 -9.346,1.752 -2.702,1.169 -4.723,2.69 -6.062,4.564 -1.339,1.874 -2.13,3.852 -2.373,5.934 -0.243,2.081 -0.365,6.456 -0.365,13.126 V 0 h 15.372 v -44.326 c 0,-2.581 0.14,-4.23 0.42,-4.947 0.279,-0.719 0.846,-1.078 1.697,-1.078 0.974,0 1.601,0.395 1.881,1.187 0.279,0.79 0.42,2.659 0.42,5.604 l 0,43.56 z"
       style="fill:#3e75d0;fill-opacity:1;fill-rule:nonzero;stroke:none"
       transform="matrix(1.3333333,0,0,-1.3333333,448.9752,163.72693)" />
  </g>
</svg>
