<?xml version="1.0" encoding="UTF-8" standalone="no"?>
<svg
   width="888"
   height="535"
   viewBox="0 0 888 535"
   fill="none"
   version="1.1"
   id="svg44"
   sodipodi:docname="SBT.svg"
   inkscape:version="1.4.3 (0d15f75, 2025-12-25)"
   xmlns:inkscape="http://www.inkscape.org/namespaces/inkscape"
   xmlns:sodipodi="http://sodipodi.sourceforge.net/DTD/sodipodi-0.dtd"
   xmlns="http://www.w3.org/2000/svg"
   xmlns:svg="http://www.w3.org/2000/svg">
  <defs
     id="defs44" />
  <sodipodi:namedview
     id="namedview44"
     pagecolor="#ffffff"
     bordercolor="#000000"
     borderopacity="0.25"
     inkscape:showpageshadow="2"
     inkscape:pageopacity="0.0"
     inkscape:pagecheckerboard="0"
     inkscape:deskcolor="#d1d1d1"
     inkscape:zoom="0.69983234"
     inkscape:cx="512.26555"
     inkscape:cy="277.20925"
     inkscape:window-width="1477"
     inkscape:window-height="675"
     inkscape:window-x="0"
     inkscape:window-y="39"
     inkscape:window-maximized="0"
     inkscape:current-layer="svg44" />
  <path
     d="m 481.817,247.669 c 0,21.069 -17.08,38.149 -38.149,38.149 -21.069,0 -38.149,-17.08 -38.149,-38.149 0,-21.069 17.08,-38.149 38.149,-38.149 21.069,0 38.149,17.08 38.149,38.149 z"
     fill="#ffcc00"
     id="path28" />
  <path
     d="m 384.04,391.62 c 38.09,15.759 81.163,15.759 119.254,-10e-4 l 6.085,14.689 c -41.978,17.368 -89.447,17.368 -131.425,0.001 z"
     fill="#0066cc"
     id="path29" />
  <path
     d="m 602.308,181.955 c 17.367,41.978 17.369,89.446 0,131.424 l -14.689,-6.085 c 15.76,-38.091 15.759,-81.163 0,-119.254 z"
     fill="#0066cc"
     id="path30" />
  <path
     d="m 396.817,360.771 c 29.928,12.383 63.772,12.385 93.701,0.002 l 6.084,14.688 c -33.815,13.991 -72.053,13.989 -105.868,-0.001 z"
     fill="#0066cc"
     id="path31" />
  <path
     d="m 571.46,194.734 c 13.99,33.815 13.992,72.052 10e-4,105.867 l -14.687,-6.084 c 12.383,-29.929 12.38,-63.772 -0.002,-93.7 z"
     fill="#0066cc"
     id="path32" />
  <path
     d="m 409.595,329.925 c 21.766,9.005 46.38,9.007 68.146,10e-4 l 6.083,14.688 c -25.653,10.614 -54.661,10.613 -80.313,0 z"
     fill="#0066cc"
     id="path33" />
  <path
     d="m 540.613,207.511 c 10.613,25.653 10.615,54.66 10e-4,80.313 l -14.688,-6.083 c 9.006,-21.767 9.004,-46.38 -0.001,-68.147 z"
     fill="#0066cc"
     id="path34" />
  <path
     d="m 422.372,299.078 c 13.603,5.627 28.986,5.627 42.589,-10e-4 l 6.085,14.687 c -17.491,7.237 -37.268,7.237 -54.758,10e-4 z"
     fill="#0066cc"
     id="path35" />
  <path
     d="m 509.766,220.288 c 7.235,17.49 7.235,37.267 -0.002,54.757 l -14.687,-6.084 c 5.629,-13.604 5.629,-28.986 10e-4,-42.589 z"
     fill="#0066cc"
     id="path36" />
  <path
     d="m 392.258,226.373 c -5.628,13.603 -5.629,28.986 -10e-4,42.589 l -14.688,6.084 c -7.235,-17.49 -7.235,-37.267 10e-4,-54.757 z"
     fill="#0066cc"
     id="path37" />
  <path
     d="m 416.288,181.569 c 17.49,-7.2355 37.267,-7.2354 54.758,0.001 l -6.085,14.687 c -13.603,-5.628 -28.986,-5.628 -42.589,-0.001 z"
     fill="#0066cc"
     id="path38" />
  <path
     d="m 403.511,150.7199 c 25.652,-10.6132 54.66,-10.6135 80.313,0 l -6.083,14.6885 c -21.766,-9.0058 -46.38,-9.0047 -68.146,0.001 z"
     fill="#0066cc"
     id="path39" />
  <path
     d="m 361.409,213.593 c -9.006,21.767 -9.005,46.38 0.001,68.147 l -14.69,6.084 c -10.613,-25.653 -10.613,-54.661 0,-80.314 z"
     fill="#0066cc"
     id="path40" />
  <path
     d="m 330.561,200.817 c -12.383,29.928 -12.381,63.772 0.002,93.7 l -14.689,6.084 c -13.991,-33.815 -13.991,-72.053 0,-105.868 z"
     fill="#0066cc"
     id="path41" />
  <path
     d="m 390.734,119.8743 c 33.815,-13.9901 72.053,-13.9919 105.868,-0.001 l -6.084,14.6874 c -29.929,-12.3826 -63.773,-12.3807 -93.701,0.002 z"
     fill="#0066cc"
     id="path42" />
  <path
     d="m 299.715,188.04 c -15.759,38.091 -15.76,81.165 -10e-4,119.255 l -14.689,6.084 c -17.368,-41.977 -17.366,-89.447 0.002,-131.424 z"
     fill="#0066cc"
     id="path43" />
  <path
     d="m 377.954,89.0254 c 41.978,-17.36765 89.447,-17.36713 131.425,0.0011 l -6.085,14.6885 C 465.203,87.9554 422.13,87.9548 384.04,103.7139 Z"
     fill="#0066cc"
     id="path44" />
</svg>
